
<global>
amp_veltrack=0
ampeg_release=0.50
master-volume=-3.0
</global>

<group>
amp_veltrack=0
ampeg_attack=0.01
ampeg_release=0.5
group_label=PP
xf_cccurve=gain
xfin_hicc1=42
xfout_hicc1=85
xfout_locc1=42

<region>
hikey=g6
hivel=127
lokey=f#6
lovel=0
offset=10760
pitch_keycenter=g6
sample=Violins1_marcato_PP_G6.opus
</region>

<region>
hikey=g5
hivel=127
lokey=f#5
lovel=0
offset=10910
pitch_keycenter=g5
sample=Violins1_marcato_PP_G5.opus
</region>

<region>
hikey=g4
hivel=127
lokey=f#4
lovel=0
offset=3484
pitch_keycenter=g4
sample=Violins1_marcato_PP_G4.opus
</region>

<region>
hivel=127
key=g3
lovel=0
offset=272
sample=Violins1_marcato_PP_G3.opus
</region>

<region>
hikey=f6
hivel=127
lokey=e6
lovel=0
offset=11402
pitch_keycenter=f6
sample=Violins1_marcato_PP_F6.opus
</region>

<region>
hikey=f5
hivel=127
lokey=e5
lovel=0
offset=10247
pitch_keycenter=f5
sample=Violins1_marcato_PP_F5.opus
</region>

<region>
hikey=f4
hivel=127
lokey=e4
lovel=0
offset=10904
pitch_keycenter=f4
sample=Violins1_marcato_PP_F4.opus
</region>

<region>
hikey=d#6
hivel=127
lokey=d6
lovel=0
offset=11633
pitch_keycenter=d#6
sample=Violins1_marcato_PP_D#6.opus
</region>

<region>
hikey=d#5
hivel=127
lokey=d5
lovel=0
offset=9423
pitch_keycenter=d#5
sample=Violins1_marcato_PP_D#5.opus
</region>

<region>
hikey=d#4
hivel=127
lokey=d4
lovel=0
offset=1209
pitch_keycenter=d#4
sample=Violins1_marcato_PP_D#4.opus
</region>

<region>
hikey=c#6
hivel=127
lokey=c6
lovel=0
offset=13077
pitch_keycenter=c#6
sample=Violins1_marcato_PP_C#6.opus
</region>

<region>
hikey=c#5
hivel=127
lokey=c5
lovel=0
offset=1943
pitch_keycenter=c#5
sample=Violins1_marcato_PP_C#5.opus
</region>

<region>
hikey=c#4
hivel=127
lokey=c4
lovel=0
offset=44
pitch_keycenter=c#4
sample=Violins1_marcato_PP_C#4.opus
</region>

<region>
hikey=E7
hivel=127
lokey=a#6
lovel=0
offset=14218
pitch_keycenter=B6
sample=Violins1_marcato_PP_B6.opus
</region>

<region>
hikey=b5
hivel=127
lokey=a#5
lovel=0
offset=11400
pitch_keycenter=b5
sample=Violins1_marcato_PP_B5.opus
</region>

<region>
hikey=b4
hivel=127
lokey=a#4
lovel=0
offset=12854
pitch_keycenter=b4
sample=Violins1_marcato_PP_B4.opus
</region>

<region>
hikey=b3
hivel=127
lokey=a#3
lovel=0
offset=1385
pitch_keycenter=b3
sample=Violins1_marcato_PP_B3.opus
</region>

<region>
hikey=a6
hivel=127
lokey=g#6
lovel=0
offset=14479
pitch_keycenter=a6
sample=Violins1_marcato_PP_A6.opus
</region>

<region>
hikey=a5
hivel=127
lokey=g#5
lovel=0
offset=5705
pitch_keycenter=a5
sample=Violins1_marcato_PP_A5.opus
</region>

<region>
hikey=a4
hivel=127
lokey=g#4
lovel=0
offset=659
pitch_keycenter=a4
sample=Violins1_marcato_PP_A4.opus
</region>

<region>
hikey=a3
hivel=127
lokey=g#3
lovel=0
offset=2200
pitch_keycenter=a3
sample=Violins1_marcato_PP_A3.opus
</region>
</group>

<group>
amp_veltrack=0
ampeg_attack=0.01
ampeg_release=0.5
group_label=MF
xf_cccurve=gain
xfin_hicc1=85
xfin_locc1=42
xfout_hicc1=127
xfout_locc1=85

<region>
hikey=g6
hivel=127
lokey=f#6
lovel=0
pitch_keycenter=g6
sample=Violins1_marcato_MF_G6.opus
</region>

<region>
hikey=g5
hivel=127
lokey=f#5
lovel=0
pitch_keycenter=g5
sample=Violins1_marcato_MF_G5.opus
</region>

<region>
hikey=g4
hivel=127
lokey=f#4
lovel=0
pitch_keycenter=g4
sample=Violins1_marcato_MF_G4.opus
</region>

<region>
hivel=127
key=g3
lovel=0
sample=Violins1_marcato_MF_G3.opus
</region>

<region>
hikey=f6
hivel=127
lokey=e6
lovel=0
pitch_keycenter=f6
sample=Violins1_marcato_MF_F6.opus
</region>

<region>
hikey=f5
hivel=127
lokey=e5
lovel=0
pitch_keycenter=f5
sample=Violins1_marcato_MF_F5.opus
</region>

<region>
hikey=f4
hivel=127
lokey=e4
lovel=0
pitch_keycenter=f4
sample=Violins1_marcato_MF_F4.opus
</region>

<region>
hikey=d#6
hivel=127
lokey=d6
lovel=0
pitch_keycenter=d#6
sample=Violins1_marcato_MF_D#6.opus
</region>

<region>
hikey=d#5
hivel=127
lokey=d5
lovel=0
pitch_keycenter=d#5
sample=Violins1_marcato_MF_D#5.opus
</region>

<region>
hikey=d#4
hivel=127
lokey=d4
lovel=0
pitch_keycenter=d#4
sample=Violins1_marcato_MF_D#4.opus
</region>

<region>
hikey=c#6
hivel=127
lokey=c6
lovel=0
pitch_keycenter=c#6
sample=Violins1_marcato_MF_C#6.opus
</region>

<region>
hikey=c#5
hivel=127
lokey=c5
lovel=0
pitch_keycenter=c#5
sample=Violins1_marcato_MF_C#5.opus
</region>

<region>
hikey=c#4
hivel=127
lokey=c4
lovel=0
pitch_keycenter=c#4
sample=Violins1_marcato_MF_C#4.opus
</region>

<region>
hikey=E7
hivel=127
lokey=a#6
lovel=0
pitch_keycenter=B6
sample=Violins1_marcato_MF_B6.opus
</region>

<region>
hikey=b5
hivel=127
lokey=a#5
lovel=0
pitch_keycenter=b5
sample=Violins1_marcato_MF_B5.opus
</region>

<region>
hikey=b4
hivel=127
lokey=a#4
lovel=0
pitch_keycenter=b4
sample=Violins1_marcato_MF_B4.opus
</region>

<region>
hikey=b3
hivel=127
lokey=a#3
lovel=0
pitch_keycenter=b3
sample=Violins1_marcato_MF_B3.opus
</region>

<region>
hikey=a6
hivel=127
lokey=g#6
lovel=0
pitch_keycenter=a6
sample=Violins1_marcato_MF_A6.opus
</region>

<region>
hikey=a5
hivel=127
lokey=g#5
lovel=0
pitch_keycenter=a5
sample=Violins1_marcato_MF_A5.opus
</region>

<region>
hikey=a4
hivel=127
lokey=g#4
lovel=0
pitch_keycenter=a4
sample=Violins1_marcato_MF_A4.opus
</region>

<region>
hikey=a3
hivel=127
lokey=g#3
lovel=0
pitch_keycenter=a3
sample=Violins1_marcato_MF_A3.opus
</region>
</group>

<group>
amp_veltrack=0
ampeg_attack=0.01
ampeg_release=0.5
group_label=FF
xf_cccurve=gain
xfin_hicc1=127
xfin_locc1=85
xfout_hicc1=127
xfout_locc1=127

<region>
hikey=g6
hivel=127
lokey=f#6
lovel=0
pitch_keycenter=g6
sample=Violins1_marcato_FF_G6.opus
</region>

<region>
hikey=g5
hivel=127
lokey=f#5
lovel=0
pitch_keycenter=g5
sample=Violins1_marcato_FF_G5.opus
</region>

<region>
hikey=g4
hivel=127
lokey=f#4
lovel=0
pitch_keycenter=g4
sample=Violins1_marcato_FF_G4.opus
</region>

<region>
hivel=127
key=g3
lovel=0
sample=Violins1_marcato_FF_G3.opus
</region>

<region>
hikey=f6
hivel=127
lokey=e6
lovel=0
pitch_keycenter=f6
sample=Violins1_marcato_FF_F6.opus
</region>

<region>
hikey=f5
hivel=127
lokey=e5
lovel=0
pitch_keycenter=f5
sample=Violins1_marcato_FF_F5.opus
</region>

<region>
hikey=f4
hivel=127
lokey=e4
lovel=0
pitch_keycenter=f4
sample=Violins1_marcato_FF_F4.opus
</region>

<region>
hikey=d#6
hivel=127
lokey=d6
lovel=0
pitch_keycenter=d#6
sample=Violins1_marcato_FF_D#6.opus
</region>

<region>
hikey=d#5
hivel=127
lokey=d5
lovel=0
pitch_keycenter=d#5
sample=Violins1_marcato_FF_D#5.opus
</region>

<region>
hikey=d#4
hivel=127
lokey=d4
lovel=0
pitch_keycenter=d#4
sample=Violins1_marcato_FF_D#4.opus
</region>

<region>
hikey=c#6
hivel=127
lokey=c6
lovel=0
pitch_keycenter=c#6
sample=Violins1_marcato_FF_C#6.opus
</region>

<region>
hikey=c#5
hivel=127
lokey=c5
lovel=0
pitch_keycenter=c#5
sample=Violins1_marcato_FF_C#5.opus
</region>

<region>
hikey=c#4
hivel=127
lokey=c4
lovel=0
pitch_keycenter=c#4
sample=Violins1_marcato_FF_C#4.opus
</region>

<region>
hikey=E7
hivel=127
lokey=a#6
lovel=0
pitch_keycenter=B6
sample=Violins1_marcato_FF_B6.opus
</region>

<region>
hikey=b5
hivel=127
lokey=a#5
lovel=0
pitch_keycenter=b5
sample=Violins1_marcato_FF_B5.opus
</region>

<region>
hikey=b4
hivel=127
lokey=a#4
lovel=0
pitch_keycenter=b4
sample=Violins1_marcato_FF_B4.opus
</region>

<region>
hikey=b3
hivel=127
lokey=a#3
lovel=0
pitch_keycenter=b3
sample=Violins1_marcato_FF_B3.opus
</region>

<region>
hikey=a6
hivel=127
lokey=g#6
lovel=0
pitch_keycenter=a6
sample=Violins1_marcato_FF_A6.opus
</region>

<region>
hikey=a5
hivel=127
lokey=g#5
lovel=0
pitch_keycenter=a5
sample=Violins1_marcato_FF_A5.opus
</region>

<region>
hikey=a4
hivel=127
lokey=g#4
lovel=0
pitch_keycenter=a4
sample=Violins1_marcato_FF_A4.opus
</region>

<region>
hikey=a3
hivel=127
lokey=g#3
lovel=0
pitch_keycenter=a3
sample=Violins1_marcato_FF_A3.opus
</region>
</group>

<group>
amp_veltrack=0
ampeg_attack=0.01
ampeg_release=0.85
group_label=RR1_0-42
seq_length=2
seq_position=1
volume=-6.0
xf_cccurve=gain
xfin_hicc1=42
xfout_hicc1=84
xfout_locc1=43

<region>
hivel=127
key=G6
lovel=0
sample=Violins1_staccatissimo_PP_G6_RR1.opus
</region>

<region>
hivel=127
key=G5
lovel=0
offset=2410
sample=Violins1_staccatissimo_PP_G5_RR1.opus
</region>

<region>
hivel=127
key=G4
lovel=0
sample=Violins1_staccatissimo_PP_G4_RR1.opus
</region>

<region>
hivel=127
key=G3
lovel=0
offset=2240
sample=Violins1_staccatissimo_PP_G3_RR1.opus
</region>

<region>
hivel=127
key=G#6
lovel=0
sample=Violins1_staccatissimo_PP_G#6_RR1.opus
</region>

<region>
hivel=127
key=G#5
lovel=0
offset=2640
sample=Violins1_staccatissimo_PP_G#5_RR1.opus
</region>

<region>
hivel=127
key=G#4
lovel=0
offset=3517
sample=Violins1_staccatissimo_PP_G#4_RR1.opus
</region>

<region>
hivel=127
key=G#3
lovel=0
sample=Violins1_staccatissimo_PP_G#3_RR1.opus
</region>

<region>
hivel=127
key=F6
lovel=0
offset=1493
sample=Violins1_staccatissimo_PP_F6_RR1.opus
</region>

<region>
hivel=127
key=F5
lovel=0
offset=2746
sample=Violins1_staccatissimo_PP_F5_RR1.opus
</region>

<region>
hivel=127
key=F4
lovel=0
offset=3097
sample=Violins1_staccatissimo_PP_F4_RR1.opus
</region>

<region>
hivel=127
key=F#6
lovel=0
sample=Violins1_staccatissimo_PP_F#6_RR1.opus
</region>

<region>
hivel=127
key=F#5
lovel=0
offset=3294
sample=Violins1_staccatissimo_PP_F#5_RR1.opus
</region>

<region>
hivel=127
key=F#4
lovel=0
sample=Violins1_staccatissimo_PP_F#4_RR1.opus
</region>

<region>
hivel=127
key=E6
lovel=0
offset=2633
sample=Violins1_staccatissimo_PP_E6_RR1.opus
</region>

<region>
hivel=127
key=E5
lovel=0
offset=2009
sample=Violins1_staccatissimo_PP_E5_RR1.opus
</region>

<region>
hivel=127
key=E4
lovel=0
offset=3068
sample=Violins1_staccatissimo_PP_E4_RR1.opus
</region>

<region>
hivel=127
key=D6
lovel=0
offset=2925
sample=Violins1_staccatissimo_PP_D6_RR1.opus
</region>

<region>
hivel=127
key=D5
lovel=0
offset=1787
sample=Violins1_staccatissimo_PP_D5_RR1.opus
</region>

<region>
hivel=127
key=D4
lovel=0
offset=369
sample=Violins1_staccatissimo_PP_D4_RR1.opus
</region>

<region>
hivel=127
key=D#6
lovel=0
offset=2934
sample=Violins1_staccatissimo_PP_D#6_RR1.opus
</region>

<region>
hivel=127
key=D#5
lovel=0
offset=1297
sample=Violins1_staccatissimo_PP_D#5_RR1.opus
</region>

<region>
hivel=127
key=D#4
lovel=0
sample=Violins1_staccatissimo_PP_D#4_RR1.opus
</region>

<region>
hikey=E7
hivel=127
lokey=C7
lovel=0
offset=2896
pitch_keycenter=C7
sample=Violins1_staccatissimo_PP_C7_RR1.opus
</region>

<region>
hivel=127
key=C6
lovel=0
offset=3261
sample=Violins1_staccatissimo_PP_C6_RR1.opus
</region>

<region>
hivel=127
key=C5
lovel=0
sample=Violins1_staccatissimo_PP_C5_RR1.opus
</region>

<region>
hivel=127
key=C4
lovel=0
offset=2189
sample=Violins1_staccatissimo_PP_C4_RR1.opus
</region>

<region>
hivel=127
key=C#6
lovel=0
offset=3770
sample=Violins1_staccatissimo_PP_C#6_RR1.opus
</region>

<region>
hivel=127
key=C#5
lovel=0
offset=3852
sample=Violins1_staccatissimo_PP_C#5_RR1.opus
</region>

<region>
hivel=127
key=C#4
lovel=0
offset=1455
sample=Violins1_staccatissimo_PP_C#4_RR1.opus
</region>

<region>
hivel=127
key=B6
lovel=0
offset=2665
sample=Violins1_staccatissimo_PP_B6_RR1.opus
</region>

<region>
hivel=127
key=B5
lovel=0
offset=873
sample=Violins1_staccatissimo_PP_B5_RR1.opus
</region>

<region>
hivel=127
key=B4
lovel=0
offset=2260
sample=Violins1_staccatissimo_PP_B4_RR1.opus
</region>

<region>
hivel=127
key=B3
lovel=0
sample=Violins1_staccatissimo_PP_B3_RR1.opus
</region>

<region>
hivel=127
key=A6
lovel=0
offset=2386
sample=Violins1_staccatissimo_PP_A6_RR1.opus
</region>

<region>
hivel=127
key=A5
lovel=0
sample=Violins1_staccatissimo_PP_A5_RR1.opus
</region>

<region>
hivel=127
key=A4
lovel=0
offset=2475
sample=Violins1_staccatissimo_PP_A4_RR1.opus
</region>

<region>
hivel=127
key=A3
lovel=0
sample=Violins1_staccatissimo_PP_A3_RR1.opus
</region>

<region>
hivel=127
key=A#6
lovel=0
offset=2733
sample=Violins1_staccatissimo_PP_A#6_RR1.opus
</region>

<region>
hivel=127
key=A#5
lovel=0
offset=1336
sample=Violins1_staccatissimo_PP_A#5_RR1.opus
</region>

<region>
hivel=127
key=A#4
lovel=0
offset=2812
sample=Violins1_staccatissimo_PP_A#4_RR1.opus
</region>

<region>
hivel=127
key=A#3
lovel=0
sample=Violins1_staccatissimo_PP_A#3_RR1.opus
</region>
</group>

<group>
amp_veltrack=0
ampeg_attack=0.01
ampeg_release=0.85
group_label=RR1_43-84
seq_length=2
seq_position=1
volume=-6.0
xf_cccurve=gain
xfin_hicc1=84
xfin_locc1=43
xfout_hicc1=127
xfout_locc1=85

<region>
hivel=127
key=G6
lovel=0
offset=196
sample=Violins1_staccatissimo_MF_G6_RR1.opus
</region>

<region>
hivel=127
key=G5
lovel=0
offset=11
sample=Violins1_staccatissimo_MF_G5_RR1.opus
</region>

<region>
hivel=127
key=G4
lovel=0
sample=Violins1_staccatissimo_MF_G4_RR1.opus
</region>

<region>
hivel=127
key=G3
lovel=0
sample=Violins1_staccatissimo_MF_G3_RR1.opus
</region>

<region>
hivel=127
key=G#6
lovel=0
sample=Violins1_staccatissimo_MF_G#6_RR1.opus
</region>

<region>
hivel=127
key=G#5
lovel=0
offset=63
sample=Violins1_staccatissimo_MF_G#5_RR1.opus
</region>

<region>
hivel=127
key=G#4
lovel=0
offset=68
sample=Violins1_staccatissimo_MF_G#4_RR1.opus
</region>

<region>
hivel=127
key=G#3
lovel=0
offset=6117
sample=Violins1_staccatissimo_MF_G#3_RR1.opus
</region>

<region>
hivel=127
key=F6
lovel=0
sample=Violins1_staccatissimo_MF_F6_RR1.opus
</region>

<region>
hivel=127
key=F5
lovel=0
offset=2851
sample=Violins1_staccatissimo_MF_F5_RR1.opus
</region>

<region>
hivel=127
key=F4
lovel=0
offset=691
sample=Violins1_staccatissimo_MF_F4_RR1.opus
</region>

<region>
hivel=127
key=F#6
lovel=0
offset=72
sample=Violins1_staccatissimo_MF_F#6_RR1.opus
</region>

<region>
hivel=127
key=F#5
lovel=0
offset=510
sample=Violins1_staccatissimo_MF_F#5_RR1.opus
</region>

<region>
hivel=127
key=F#4
lovel=0
offset=4356
sample=Violins1_staccatissimo_MF_F#4_RR1.opus
</region>

<region>
hivel=127
key=E6
lovel=0
sample=Violins1_staccatissimo_MF_E6_RR1.opus
</region>

<region>
hivel=127
key=E5
lovel=0
offset=4048
sample=Violins1_staccatissimo_MF_E5_RR1.opus
</region>

<region>
hivel=127
key=E4
lovel=0
sample=Violins1_staccatissimo_MF_E4_RR1.opus
</region>

<region>
hivel=127
key=D6
lovel=0
sample=Violins1_staccatissimo_MF_D6_RR1.opus
</region>

<region>
hivel=127
key=D5
lovel=0
offset=4311
sample=Violins1_staccatissimo_MF_D5_RR1.opus
</region>

<region>
hivel=127
key=D4
lovel=0
offset=1222
sample=Violins1_staccatissimo_MF_D4_RR1.opus
</region>

<region>
hivel=127
key=D#6
lovel=0
offset=638
sample=Violins1_staccatissimo_MF_D#6_RR1.opus
</region>

<region>
hivel=127
key=D#5
lovel=0
sample=Violins1_staccatissimo_MF_D#5_RR1.opus
</region>

<region>
hivel=127
key=d#4
lovel=0
sample=Violins1_staccatissimo_MF_D#4_RR1.opus
</region>

<region>
hikey=E7
hivel=127
lokey=C7
lovel=0
pitch_keycenter=C7
sample=Violins1_staccatissimo_MF_C7_RR1.opus
</region>

<region>
hivel=127
key=C6
lovel=0
offset=49
sample=Violins1_staccatissimo_MF_C6_RR1.opus
</region>

<region>
hivel=127
key=C5
lovel=0
sample=Violins1_staccatissimo_MF_C5_RR1.opus
</region>

<region>
hivel=127
key=C4
lovel=0
sample=Violins1_staccatissimo_MF_C4_RR1.opus
</region>

<region>
hivel=127
key=C#6
lovel=0
offset=66
sample=Violins1_staccatissimo_MF_C#6_RR1.opus
</region>

<region>
hivel=127
key=C#5
lovel=0
offset=212
sample=Violins1_staccatissimo_MF_C#5_RR1.opus
</region>

<region>
hivel=127
key=C#4
lovel=0
offset=513
sample=Violins1_staccatissimo_MF_C#4_RR1.opus
</region>

<region>
hivel=127
key=B6
lovel=0
offset=370
sample=Violins1_staccatissimo_MF_B6_RR1.opus
</region>

<region>
hivel=127
key=B5
lovel=0
offset=3965
sample=Violins1_staccatissimo_MF_B5_RR1.opus
</region>

<region>
hivel=127
key=B4
lovel=0
offset=619
sample=Violins1_staccatissimo_MF_B4_RR1.opus
</region>

<region>
hivel=127
key=B3
lovel=0
offset=4731
sample=Violins1_staccatissimo_MF_B3_RR1.opus
</region>

<region>
hivel=127
key=A6
lovel=0
sample=Violins1_staccatissimo_MF_A6_RR1.opus
</region>

<region>
hivel=127
key=A5
lovel=0
sample=Violins1_staccatissimo_MF_A5_RR1.opus
</region>

<region>
hivel=127
key=A4
lovel=0
sample=Violins1_staccatissimo_MF_A4_RR1.opus
</region>

<region>
hivel=127
key=A3
lovel=0
offset=4685
sample=Violins1_staccatissimo_MF_A3_RR1.opus
</region>

<region>
hivel=127
key=A#6
lovel=0
offset=105
sample=Violins1_staccatissimo_MF_A#6_RR1.opus
</region>

<region>
hivel=127
key=A#5
lovel=0
sample=Violins1_staccatissimo_MF_A#5_RR1.opus
</region>

<region>
hivel=127
key=A#4
lovel=0
offset=725
sample=Violins1_staccatissimo_MF_A#4_RR1.opus
</region>

<region>
hivel=127
key=A#3
lovel=0
sample=Violins1_staccatissimo_MF_A#3_RR1.opus
</region>
</group>

<group>
amp_veltrack=0
ampeg_attack=0.01
ampeg_release=0.85
group_label=RR1_85-127
seq_length=2
seq_position=1
volume=-6.0
xf_cccurve=gain
xfin_hicc1=127
xfin_locc1=85
xfout_hicc1=127
xfout_locc1=127

<region>
hivel=127
key=G6
lovel=0
offset=1356
sample=Violins1_staccatissimo_FF_G6_RR1.opus
</region>

<region>
hivel=127
key=G5
lovel=0
offset=64
sample=Violins1_staccatissimo_FF_G5_RR1.opus
</region>

<region>
hivel=127
key=G4
lovel=0
sample=Violins1_staccatissimo_FF_G4_RR1.opus
</region>

<region>
hivel=127
key=G3
lovel=0
sample=Violins1_staccatissimo_FF_G3_RR1.opus
</region>

<region>
hivel=127
key=G#6
lovel=0
offset=1366
sample=Violins1_staccatissimo_FF_G#6_RR1.opus
</region>

<region>
hivel=127
key=G#5
lovel=0
offset=276
sample=Violins1_staccatissimo_FF_G#5_RR1.opus
</region>

<region>
hivel=127
key=G#4
lovel=0
offset=494
sample=Violins1_staccatissimo_FF_G#4_RR1.opus
</region>

<region>
hivel=127
key=G#3
lovel=0
offset=286
sample=Violins1_staccatissimo_FF_G#3_RR1.opus
</region>

<region>
hivel=127
key=F6
lovel=0
offset=669
sample=Violins1_staccatissimo_FF_F6_RR1.opus
</region>

<region>
hivel=127
key=F5
lovel=0
offset=1260
sample=Violins1_staccatissimo_FF_F5_RR1.opus
</region>

<region>
hivel=127
key=F4
lovel=0
sample=Violins1_staccatissimo_FF_F4_RR1.opus
</region>

<region>
hivel=127
key=F#6
lovel=0
offset=1099
sample=Violins1_staccatissimo_FF_F#6_RR1.opus
</region>

<region>
hivel=127
key=F#5
lovel=0
offset=1176
sample=Violins1_staccatissimo_FF_F#5_RR1.opus
</region>

<region>
hivel=127
key=F#4
lovel=0
offset=340
sample=Violins1_staccatissimo_FF_F#4_RR1.opus
</region>

<region>
hivel=127
key=E6
lovel=0
offset=1188
sample=Violins1_staccatissimo_FF_E6_RR1.opus
</region>

<region>
hivel=127
key=E5
lovel=0
sample=Violins1_staccatissimo_FF_E5_RR1.opus
</region>

<region>
hivel=127
key=E4
lovel=0
offset=360
sample=Violins1_staccatissimo_FF_E4_RR1.opus
</region>

<region>
hivel=127
key=D6
lovel=0
sample=Violins1_staccatissimo_FF_D6_RR1.opus
</region>

<region>
hivel=127
key=D5
lovel=0
sample=Violins1_staccatissimo_FF_D5_RR1.opus
</region>

<region>
hivel=127
key=D4
lovel=0
sample=Violins1_staccatissimo_FF_D4_RR1.opus
</region>

<region>
hivel=127
key=D#6
lovel=0
sample=Violins1_staccatissimo_FF_D#6_RR1.opus
</region>

<region>
hivel=127
key=D#5
lovel=0
offset=147
sample=Violins1_staccatissimo_FF_D#5_RR1.opus
</region>

<region>
hivel=127
key=D#4
lovel=0
offset=973
sample=Violins1_staccatissimo_FF_D#4_RR1.opus
</region>

<region>
hikey=E7
hivel=127
lokey=C7
lovel=0
offset=639
pitch_keycenter=C7
sample=Violins1_staccatissimo_FF_C7_RR1.opus
</region>

<region>
hivel=127
key=C6
lovel=0
sample=Violins1_staccatissimo_FF_C6_RR1.opus
</region>

<region>
hivel=127
key=C5
lovel=0
offset=171
sample=Violins1_staccatissimo_FF_C5_RR1.opus
</region>

<region>
hivel=127
key=C4
lovel=0
sample=Violins1_staccatissimo_FF_C4_RR1.opus
</region>

<region>
hivel=127
key=C#6
lovel=0
offset=637
sample=Violins1_staccatissimo_FF_C#6_RR1.opus
</region>

<region>
hivel=127
key=C#5
lovel=0
sample=Violins1_staccatissimo_FF_C#5_RR1.opus
</region>

<region>
hivel=127
key=C#4
lovel=0
sample=Violins1_staccatissimo_FF_C#4_RR1.opus
</region>

<region>
hivel=127
key=B6
lovel=0
sample=Violins1_staccatissimo_FF_B6_RR1.opus
</region>

<region>
hivel=127
key=B5
lovel=0
offset=1329
sample=Violins1_staccatissimo_FF_B5_RR1.opus
</region>

<region>
hivel=127
key=B4
lovel=0
offset=4472
sample=Violins1_staccatissimo_FF_B4_RR1.opus
</region>

<region>
hivel=127
key=B3
lovel=0
sample=Violins1_staccatissimo_FF_B3_RR1.opus
</region>

<region>
hivel=127
key=A6
lovel=0
offset=261
sample=Violins1_staccatissimo_FF_A6_RR1.opus
</region>

<region>
hivel=127
key=A5
lovel=0
offset=881
sample=Violins1_staccatissimo_FF_A5_RR1.opus
</region>

<region>
hivel=127
key=A4
lovel=0
offset=544
sample=Violins1_staccatissimo_FF_A4_RR1.opus
</region>

<region>
hivel=127
key=A3
lovel=0
sample=Violins1_staccatissimo_FF_A3_RR1.opus
</region>

<region>
hivel=127
key=A#6
lovel=0
sample=Violins1_staccatissimo_FF_A#6_RR1.opus
</region>

<region>
hivel=127
key=A#5
lovel=0
offset=216
sample=Violins1_staccatissimo_FF_A#5_RR1.opus
</region>

<region>
hivel=127
key=A#4
lovel=0
offset=743
sample=Violins1_staccatissimo_FF_A#4_RR1.opus
</region>

<region>
hivel=127
key=A#3
lovel=0
offset=450
sample=Violins1_staccatissimo_FF_A#3_RR1.opus
</region>
</group>

<group>
amp_veltrack=0
ampeg_attack=0.01
ampeg_release=0.85
group_label=RR2_0-42
seq_length=2
seq_position=2
volume=-6.0
xf_cccurve=gain
xfin_hicc1=42
xfout_hicc1=84
xfout_locc1=43

<region>
hivel=127
key=G6
lovel=0
offset=1434
sample=Violins1_staccatissimo_PP_G6_RR2.opus
</region>

<region>
hivel=127
key=G5
lovel=0
sample=Violins1_staccatissimo_PP_G5_RR2.opus
</region>

<region>
hivel=127
key=G4
lovel=0
sample=Violins1_staccatissimo_PP_G4_RR2.opus
</region>

<region>
hivel=127
key=G3
lovel=0
offset=816
sample=Violins1_staccatissimo_PP_G3_RR2.opus
</region>

<region>
hivel=127
key=G#6
lovel=0
offset=161
sample=Violins1_staccatissimo_PP_G#6_RR2.opus
</region>

<region>
hivel=127
key=G#5
lovel=0
offset=1827
sample=Violins1_staccatissimo_PP_G#5_RR2.opus
</region>

<region>
hivel=127
key=G#4
lovel=0
offset=602
sample=Violins1_staccatissimo_PP_G#4_RR2.opus
</region>

<region>
hivel=127
key=G#3
lovel=0
sample=Violins1_staccatissimo_PP_G#3_RR2.opus
</region>

<region>
hivel=127
key=F6
lovel=0
offset=1309
sample=Violins1_staccatissimo_PP_F6_RR2.opus
</region>

<region>
hivel=127
key=F5
lovel=0
offset=1915
sample=Violins1_staccatissimo_PP_F5_RR2.opus
</region>

<region>
hivel=127
key=F4
lovel=0
offset=1600
sample=Violins1_staccatissimo_PP_F4_RR2.opus
</region>

<region>
hivel=127
key=F#6
lovel=0
offset=556
sample=Violins1_staccatissimo_PP_F#6_RR2.opus
</region>

<region>
hivel=127
key=F#5
lovel=0
offset=2215
sample=Violins1_staccatissimo_PP_F#5_RR2.opus
</region>

<region>
hivel=127
key=F#4
lovel=0
offset=1392
sample=Violins1_staccatissimo_PP_F#4_RR2.opus
</region>

<region>
hivel=127
key=E6
lovel=0
sample=Violins1_staccatissimo_PP_E6_RR2.opus
</region>

<region>
hivel=127
key=E5
lovel=0
offset=1582
sample=Violins1_staccatissimo_PP_E5_RR2.opus
</region>

<region>
hivel=127
key=E4
lovel=0
offset=1
sample=Violins1_staccatissimo_PP_E4_RR2.opus
</region>

<region>
hivel=127
key=D6
lovel=0
offset=1877
sample=Violins1_staccatissimo_PP_D6_RR2.opus
</region>

<region>
hivel=127
key=D5
lovel=0
offset=621
sample=Violins1_staccatissimo_PP_D5_RR2.opus
</region>

<region>
hivel=127
key=D4
lovel=0
offset=2060
sample=Violins1_staccatissimo_PP_D4_RR2.opus
</region>

<region>
hivel=127
key=D#6
lovel=0
offset=2003
sample=Violins1_staccatissimo_PP_D#6_RR2.opus
</region>

<region>
hivel=127
key=D#5
lovel=0
offset=789
sample=Violins1_staccatissimo_PP_D#5_RR2.opus
</region>

<region>
hivel=127
key=D#4
lovel=0
offset=1558
sample=Violins1_staccatissimo_PP_D#4_RR2.opus
</region>

<region>
hikey=E7
hivel=127
lokey=C7
lovel=0
offset=2600
pitch_keycenter=C7
sample=Violins1_staccatissimo_PP_C7_RR2.opus
</region>

<region>
hivel=127
key=C6
lovel=0
sample=Violins1_staccatissimo_PP_C6_RR2.opus
</region>

<region>
hivel=127
key=C5
lovel=0
sample=Violins1_staccatissimo_PP_C5_RR2.opus
</region>

<region>
hivel=127
key=C4
lovel=0
offset=283
sample=Violins1_staccatissimo_PP_C4_RR2.opus
</region>

<region>
hivel=127
key=C#6
lovel=0
offset=1888
sample=Violins1_staccatissimo_PP_C#6_RR2.opus
</region>

<region>
hivel=127
key=C#5
lovel=0
sample=Violins1_staccatissimo_PP_C#5_RR2.opus
</region>

<region>
hivel=127
key=C#4
lovel=0
offset=1417
sample=Violins1_staccatissimo_PP_C#4_RR2.opus
</region>

<region>
hivel=127
key=B6
lovel=0
offset=1916
sample=Violins1_staccatissimo_PP_B6_RR2.opus
</region>

<region>
hivel=127
key=B5
lovel=0
offset=1101
sample=Violins1_staccatissimo_PP_B5_RR2.opus
</region>

<region>
hivel=127
key=B4
lovel=0
sample=Violins1_staccatissimo_PP_B4_RR2.opus
</region>

<region>
hivel=127
key=B3
lovel=0
sample=Violins1_staccatissimo_PP_B3_RR2.opus
</region>

<region>
hivel=127
key=A6
lovel=0
offset=996
sample=Violins1_staccatissimo_PP_A6_RR2.opus
</region>

<region>
hivel=127
key=A5
lovel=0
offset=1463
sample=Violins1_staccatissimo_PP_A5_RR2.opus
</region>

<region>
hivel=127
key=A4
lovel=0
offset=406
sample=Violins1_staccatissimo_PP_A4_RR2.opus
</region>

<region>
hivel=127
key=A3
lovel=0
sample=Violins1_staccatissimo_PP_A3_RR2.opus
</region>

<region>
hivel=127
key=A#6
lovel=0
offset=408
sample=Violins1_staccatissimo_PP_A#6_RR2.opus
</region>

<region>
hivel=127
key=A#5
lovel=0
offset=1598
sample=Violins1_staccatissimo_PP_A#5_RR2.opus
</region>

<region>
hivel=127
key=A#4
lovel=0
offset=1107
sample=Violins1_staccatissimo_PP_A#4_RR2.opus
</region>

<region>
hivel=127
key=A#3
lovel=0
offset=481
sample=Violins1_staccatissimo_PP_A#3_RR2.opus
</region>
</group>

<group>
amp_veltrack=0
ampeg_attack=0.01
ampeg_release=0.85
group_label=RR2_43-84
seq_length=2
seq_position=2
volume=-6.0
xf_cccurve=gain
xfin_hicc1=84
xfin_locc1=43
xfout_hicc1=127
xfout_locc1=85

<region>
hivel=127
key=G6
lovel=0
sample=Violins1_staccatissimo_MF_G6_RR2.opus
</region>

<region>
hivel=127
key=G5
lovel=0
offset=1563
sample=Violins1_staccatissimo_MF_G5_RR2.opus
</region>

<region>
hivel=127
key=G4
lovel=0
sample=Violins1_staccatissimo_MF_G4_RR2.opus
</region>

<region>
hivel=127
key=G3
lovel=0
sample=Violins1_staccatissimo_MF_G3_RR2.opus
</region>

<region>
hivel=127
key=G#6
lovel=0
sample=Violins1_staccatissimo_MF_G#6_RR2.opus
</region>

<region>
hivel=127
key=G#5
lovel=0
offset=102
sample=Violins1_staccatissimo_MF_G#5_RR2.opus
</region>

<region>
hivel=127
key=G#4
lovel=0
offset=398
sample=Violins1_staccatissimo_MF_G#4_RR2.opus
</region>

<region>
hivel=127
key=G#3
lovel=0
offset=126
sample=Violins1_staccatissimo_MF_G#3_RR2.opus
</region>

<region>
hivel=127
key=F6
lovel=0
sample=Violins1_staccatissimo_MF_F6_RR2.opus
</region>

<region>
hivel=127
key=F5
lovel=0
offset=276
sample=Violins1_staccatissimo_MF_F5_RR2.opus
</region>

<region>
hivel=127
key=F4
lovel=0
offset=46
sample=Violins1_staccatissimo_MF_F4_RR2.opus
</region>

<region>
hivel=127
key=F#6
lovel=0
sample=Violins1_staccatissimo_MF_F#6_RR2.opus
</region>

<region>
hivel=127
key=F#5
lovel=0
offset=633
sample=Violins1_staccatissimo_MF_F#5_RR2.opus
</region>

<region>
hivel=127
key=F#4
lovel=0
offset=704
sample=Violins1_staccatissimo_MF_F#4_RR2.opus
</region>

<region>
hivel=127
key=E6
lovel=0
sample=Violins1_staccatissimo_MF_E6_RR2.opus
</region>

<region>
hivel=127
key=E5
lovel=0
sample=Violins1_staccatissimo_MF_E5_RR2.opus
</region>

<region>
hivel=127
key=E4
lovel=0
sample=Violins1_staccatissimo_MF_E4_RR2.opus
</region>

<region>
hivel=127
key=D6
lovel=0
sample=Violins1_staccatissimo_MF_D6_RR2.opus
</region>

<region>
hivel=127
key=D5
lovel=0
offset=34
sample=Violins1_staccatissimo_MF_D5_RR2.opus
</region>

<region>
hivel=127
key=D4
lovel=0
sample=Violins1_staccatissimo_MF_D4_RR2.opus
</region>

<region>
hivel=127
key=D#6
lovel=0
offset=139
sample=Violins1_staccatissimo_MF_D#6_RR2.opus
</region>

<region>
hivel=127
key=D#5
lovel=0
sample=Violins1_staccatissimo_MF_D#5_RR2.opus
</region>

<region>
hivel=127
key=D#4
lovel=0
offset=341
sample=Violins1_staccatissimo_MF_D#4_RR2.opus
</region>

<region>
hikey=E7
hivel=127
lokey=C7
lovel=0
pitch_keycenter=C7
sample=Violins1_staccatissimo_MF_C7_RR2.opus
</region>

<region>
hivel=127
key=C6
lovel=0
sample=Violins1_staccatissimo_MF_C6_RR2.opus
</region>

<region>
hivel=127
key=C5
lovel=0
sample=Violins1_staccatissimo_MF_C5_RR2.opus
</region>

<region>
hivel=127
key=C4
lovel=0
sample=Violins1_staccatissimo_MF_C4_RR2.opus
</region>

<region>
hivel=127
key=C#6
lovel=0
offset=83
sample=Violins1_staccatissimo_MF_C#6_RR2.opus
</region>

<region>
hivel=127
key=C#5
lovel=0
sample=Violins1_staccatissimo_MF_C#5_RR2.opus
</region>

<region>
hivel=127
key=C#4
lovel=0
sample=Violins1_staccatissimo_MF_C#4_RR2.opus
</region>

<region>
hivel=127
key=B6
lovel=0
offset=466
sample=Violins1_staccatissimo_MF_B6_RR2.opus
</region>

<region>
hivel=127
key=B5
lovel=0
sample=Violins1_staccatissimo_MF_B5_RR2.opus
</region>

<region>
hivel=127
key=B4
lovel=0
offset=349
sample=Violins1_staccatissimo_MF_B4_RR2.opus
</region>

<region>
hivel=127
key=B3
lovel=0
offset=1108
sample=Violins1_staccatissimo_MF_B3_RR2.opus
</region>

<region>
hivel=127
key=A6
lovel=0
sample=Violins1_staccatissimo_MF_A6_RR2.opus
</region>

<region>
hivel=127
key=A5
lovel=0
sample=Violins1_staccatissimo_MF_A5_RR2.opus
</region>

<region>
hivel=127
key=A4
lovel=0
offset=204
sample=Violins1_staccatissimo_MF_A4_RR2.opus
</region>

<region>
hivel=127
key=A3
lovel=0
sample=Violins1_staccatissimo_MF_A3_RR2.opus
</region>

<region>
hivel=127
key=A#6
lovel=0
offset=367
sample=Violins1_staccatissimo_MF_A#6_RR2.opus
</region>

<region>
hivel=127
key=A#5
lovel=0
offset=1091
sample=Violins1_staccatissimo_MF_A#5_RR2.opus
</region>

<region>
hivel=127
key=A#4
lovel=0
sample=Violins1_staccatissimo_MF_A#4_RR2.opus
</region>

<region>
hivel=127
key=A#3
lovel=0
sample=Violins1_staccatissimo_MF_A#3_RR2.opus
</region>
</group>

<group>
amp_veltrack=0
ampeg_attack=0.01
ampeg_release=0.85
group_label=RR2_85-127
seq_length=2
seq_position=2
volume=-6.0
xf_cccurve=gain
xfin_hicc1=127
xfin_locc1=85
xfout_hicc1=127
xfout_locc1=127

<region>
hivel=127
key=G6
lovel=0
offset=1154
sample=Violins1_staccatissimo_FF_G6_RR2.opus
</region>

<region>
hivel=127
key=G5
lovel=0
sample=Violins1_staccatissimo_FF_G5_RR2.opus
</region>

<region>
hivel=127
key=G4
lovel=0
sample=Violins1_staccatissimo_FF_G4_RR2.opus
</region>

<region>
hivel=127
key=G3
lovel=0
offset=690
sample=Violins1_staccatissimo_FF_G3_RR2.opus
</region>

<region>
hivel=127
key=G#6
lovel=0
sample=Violins1_staccatissimo_FF_G#6_RR2.opus
</region>

<region>
hivel=127
key=G#5
lovel=0
offset=46
sample=Violins1_staccatissimo_FF_G#5_RR2.opus
</region>

<region>
hivel=127
key=G#4
lovel=0
offset=332
sample=Violins1_staccatissimo_FF_G#4_RR2.opus
</region>

<region>
hivel=127
key=G#3
lovel=0
offset=927
sample=Violins1_staccatissimo_FF_G#3_RR2.opus
</region>

<region>
hivel=127
key=F6
lovel=0
offset=1089
sample=Violins1_staccatissimo_FF_F6_RR2.opus
</region>

<region>
hivel=127
key=F5
lovel=0
offset=373
sample=Violins1_staccatissimo_FF_F5_RR2.opus
</region>

<region>
hivel=127
key=F4
lovel=0
offset=486
sample=Violins1_staccatissimo_FF_F4_RR2.opus
</region>

<region>
hivel=127
key=F#6
lovel=0
offset=401
sample=Violins1_staccatissimo_FF_F#6_RR2.opus
</region>

<region>
hivel=127
key=F#5
lovel=0
sample=Violins1_staccatissimo_FF_F#5_RR2.opus
</region>

<region>
hivel=127
key=F#4
lovel=0
offset=70
sample=Violins1_staccatissimo_FF_F#4_RR2.opus
</region>

<region>
hivel=127
key=E6
lovel=0
sample=Violins1_staccatissimo_FF_E6_RR2.opus
</region>

<region>
hivel=127
key=E5
lovel=0
sample=Violins1_staccatissimo_FF_E5_RR2.opus
</region>

<region>
hivel=127
key=E4
lovel=0
sample=Violins1_staccatissimo_FF_E4_RR2.opus
</region>

<region>
hivel=127
key=D6
lovel=0
sample=Violins1_staccatissimo_FF_D6_RR2.opus
</region>

<region>
hivel=127
key=D5
lovel=0
offset=889
sample=Violins1_staccatissimo_FF_D5_RR2.opus
</region>

<region>
hivel=127
key=D4
lovel=0
sample=Violins1_staccatissimo_FF_D4_RR2.opus
</region>

<region>
hivel=127
key=D#6
lovel=0
offset=565
sample=Violins1_staccatissimo_FF_D#6_RR2.opus
</region>

<region>
hivel=127
key=D#5
lovel=0
sample=Violins1_staccatissimo_FF_D#5_RR2.opus
</region>

<region>
hivel=127
key=D#4
lovel=0
offset=1405
sample=Violins1_staccatissimo_FF_D#4_RR2.opus
</region>

<region>
hikey=E7
hivel=127
lokey=C7
lovel=0
pitch_keycenter=C7
sample=Violins1_staccatissimo_FF_C7_RR2.opus
</region>

<region>
hivel=127
key=C6
lovel=0
offset=398
sample=Violins1_staccatissimo_FF_C6_RR2.opus
</region>

<region>
hivel=127
key=C5
lovel=0
sample=Violins1_staccatissimo_FF_C5_RR2.opus
</region>

<region>
hivel=127
key=C4
lovel=0
offset=560
sample=Violins1_staccatissimo_FF_C4_RR2.opus
</region>

<region>
hivel=127
key=C#6
lovel=0
offset=1669
sample=Violins1_staccatissimo_FF_C#6_RR2.opus
</region>

<region>
hivel=127
key=C#5
lovel=0
offset=214
sample=Violins1_staccatissimo_FF_C#5_RR2.opus
</region>

<region>
hivel=127
key=C#4
lovel=0
offset=14
sample=Violins1_staccatissimo_FF_C#4_RR2.opus
</region>

<region>
hivel=127
key=B6
lovel=0
sample=Violins1_staccatissimo_FF_B6_RR2.opus
</region>

<region>
hivel=127
key=B5
lovel=0
offset=1699
sample=Violins1_staccatissimo_FF_B5_RR2.opus
</region>

<region>
hivel=127
key=B4
lovel=0
offset=172
sample=Violins1_staccatissimo_FF_B4_RR2.opus
</region>

<region>
hivel=127
key=B3
lovel=0
offset=307
sample=Violins1_staccatissimo_FF_B3_RR2.opus
</region>

<region>
hivel=127
key=A6
lovel=0
sample=Violins1_staccatissimo_FF_A6_RR2.opus
</region>

<region>
hivel=127
key=A5
lovel=0
offset=671
sample=Violins1_staccatissimo_FF_A5_RR2.opus
</region>

<region>
hivel=127
key=A4
lovel=0
offset=734
sample=Violins1_staccatissimo_FF_A4_RR2.opus
</region>

<region>
hivel=127
key=A3
lovel=0
offset=5
sample=Violins1_staccatissimo_FF_A3_RR2.opus
</region>

<region>
hivel=127
key=A#6
lovel=0
offset=132
sample=Violins1_staccatissimo_FF_A#6_RR2.opus
</region>

<region>
hivel=127
key=A#5
lovel=0
sample=Violins1_staccatissimo_FF_A#5_RR2.opus
</region>

<region>
hivel=127
key=A#4
lovel=0
offset=1420
sample=Violins1_staccatissimo_FF_A#4_RR2.opus
</region>

<region>
hivel=127
key=A#3
lovel=0
sample=Violins1_staccatissimo_FF_A#3_RR2.opus
</region>
</group>